<!-- Generated by IcoMoon.io -->
<svg version="1.1" xmlns="http://www.w3.org/2000/svg" width="61" height="32" viewBox="0 0 61 32">
<title>iconsclient1</title>
<path fill="#8e8f99" d="M25.455 8.364l2.548 2.428-4.73-0.003v11.779h12.364v-4.504l2.545 2.425v-12.125h-12.727zM35.525 17.779l-7.225-6.884h7.225v6.884zM33.281 20.845h-8.052v-7.922h0.569v7.386h7.483v0.536zM26.835 24.75l-0.3-0.617h-0.248l0.435 0.817v0.476h0.225v-0.476l0.435-0.817h-0.247l-0.3 0.617zM27.941 24.132h0.053l0.488 1.293h-0.234l-0.105-0.303h-0.5l-0.104 0.303h-0.233l0.486-1.293h0.149zM27.704 24.946h0.378l-0.189-0.548-0.189 0.548zM29.266 24.732l-0.028-0.036c-0.033-0.044-0.059-0.086-0.077-0.127s-0.028-0.084-0.028-0.128c0-0.067 0.014-0.125 0.042-0.174s0.067-0.086 0.118-0.112c0.049-0.025 0.107-0.040 0.169-0.040 0.003 0 0.007 0 0.010 0h-0c0.066 0 0.122 0.013 0.17 0.040s0.085 0.061 0.11 0.104c0.024 0.040 0.039 0.088 0.039 0.14 0 0.001 0 0.002 0 0.002v-0c0 0.041-0.007 0.078-0.022 0.112s-0.035 0.064-0.061 0.092c-0.027 0.029-0.057 0.055-0.089 0.078l-0.002 0.001-0.090 0.065 0.256 0.302 0.023-0.052c0.021-0.054 0.033-0.117 0.033-0.182 0-0.002 0-0.005-0-0.007v0h0.185c0 0.063-0.006 0.122-0.019 0.178-0.018 0.081-0.051 0.153-0.096 0.215l0.001-0.002 0.189 0.224h-0.248l-0.075-0.088c-0.038 0.029-0.082 0.054-0.13 0.071l-0.003 0.001c-0.060 0.022-0.128 0.034-0.2 0.034-0 0-0.001 0-0.001 0h0c-0.086 0-0.16-0.016-0.223-0.047s-0.111-0.075-0.146-0.13c-0.032-0.052-0.050-0.114-0.050-0.181 0-0.053 0.012-0.104 0.033-0.149l-0.001 0.002c0.024-0.043 0.054-0.080 0.090-0.112l0-0c0.035-0.032 0.075-0.063 0.12-0.095zM29.372 24.861l-0.027 0.019c-0.031 0.025-0.055 0.050-0.070 0.074s-0.025 0.044-0.029 0.064c-0.004 0.017-0.007 0.035-0.007 0.055 0 0.036 0.009 0.071 0.025 0.101l-0.001-0.001c0.017 0.031 0.042 0.056 0.071 0.073l0.001 0c0.032 0.017 0.069 0.027 0.109 0.027 0.002 0 0.005-0 0.007-0h-0c0 0 0.001 0 0.001 0 0.079 0 0.152-0.028 0.208-0.074l-0.001 0-0.288-0.338zM29.423 24.625l0.079-0.053c0.037-0.025 0.064-0.049 0.080-0.073s0.024-0.054 0.024-0.091c-0.003-0.069-0.059-0.124-0.129-0.124-0.003 0-0.005 0-0.007 0h0c-0.030 0-0.056 0.007-0.076 0.021s-0.036 0.032-0.047 0.055c-0.009 0.021-0.015 0.046-0.015 0.073 0 0.001 0 0.002 0 0.003v-0c0 0.027 0.007 0.054 0.020 0.083 0.020 0.041 0.043 0.076 0.071 0.107l-0-0zM31.685 25.004h-0.222c-0.006 0.056-0.020 0.104-0.041 0.143s-0.050 0.068-0.090 0.088c-0.041 0.019-0.089 0.030-0.14 0.030-0.005 0-0.010-0-0.015-0l0.001 0c-0.052 0-0.097-0.010-0.134-0.031s-0.068-0.050-0.092-0.088c-0.024-0.038-0.041-0.083-0.053-0.136s-0.017-0.112-0.017-0.178v-0.109c0-0.069 0.006-0.13 0.019-0.183s0.032-0.099 0.058-0.136c0.025-0.037 0.057-0.064 0.095-0.083s0.082-0.028 0.133-0.028c0.062 0 0.112 0.011 0.151 0.032s0.067 0.051 0.087 0.091c0.020 0.040 0.033 0.087 0.039 0.143h0.222c-0.009-0.086-0.033-0.163-0.073-0.23s-0.094-0.119-0.165-0.157c-0.071-0.036-0.155-0.057-0.244-0.057-0.006 0-0.012 0-0.018 0l0.001-0c-0.081 0-0.154 0.014-0.219 0.043s-0.12 0.070-0.166 0.123c-0.046 0.053-0.082 0.117-0.107 0.193s-0.036 0.159-0.036 0.252v0.107c0 0.093 0.012 0.177 0.036 0.252s0.059 0.139 0.105 0.193c0.046 0.053 0.1 0.093 0.164 0.122s0.136 0.043 0.216 0.043c0.104 0 0.193-0.019 0.265-0.057s0.129-0.090 0.17-0.155c0.039-0.065 0.065-0.142 0.071-0.224l0-0.002zM32.918 24.814v-0.071c0-0.098-0.013-0.185-0.039-0.262s-0.062-0.144-0.109-0.198c-0.047-0.055-0.104-0.097-0.17-0.125-0.064-0.028-0.139-0.045-0.218-0.045s-0.154 0.016-0.222 0.046l0.004-0.001c-0.067 0.030-0.124 0.072-0.169 0.124l-0 0.001c-0.047 0.054-0.084 0.12-0.11 0.198s-0.039 0.164-0.039 0.262v0.071c0 0.098 0.013 0.185 0.039 0.263s0.064 0.144 0.112 0.198c0.090 0.103 0.222 0.168 0.369 0.168 0.007 0 0.014-0 0.020-0l-0.001 0c0.006 0 0.013 0 0.020 0 0.146 0 0.278-0.065 0.366-0.168l0.001-0.001c0.047-0.054 0.084-0.12 0.109-0.198s0.038-0.165 0.038-0.263zM32.695 24.741v0.073c0 0.072-0.007 0.136-0.021 0.192s-0.034 0.103-0.060 0.141c-0.047 0.069-0.126 0.114-0.215 0.114-0.005 0-0.010-0-0.015-0l0.001 0c-0.049 0-0.093-0.009-0.131-0.028s-0.072-0.048-0.099-0.086c-0.027-0.038-0.048-0.086-0.062-0.141s-0.021-0.12-0.021-0.192v-0.073c0-0.072 0.007-0.136 0.021-0.191s0.035-0.102 0.061-0.139c0.027-0.038 0.060-0.066 0.099-0.085s0.082-0.029 0.131-0.029 0.093 0.010 0.132 0.029c0.039 0.019 0.072 0.047 0.099 0.085s0.048 0.084 0.061 0.139c0.013 0.054 0.021 0.116 0.021 0.18 0 0.004-0 0.008-0 0.011v-0.001z"></path>
</svg>
